<svg width="176" height="176" viewBox="0 0 176 176" fill="none" xmlns="http://www.w3.org/2000/svg">
<mask id="mask0_385_117" style="mask-type:alpha" maskUnits="userSpaceOnUse" x="0" y="0" width="176" height="176">
<circle cx="88" cy="88" r="88" fill="#C4C4C4"/>
</mask>
<g mask="url(#mask0_385_117)">
<path d="M176 88C176 39.3989 136.601 0 88 0C39.3989 0 0 39.3989 0 88C0 136.601 39.3989 176 88 176C136.601 176 176 136.601 176 88Z" fill="#FFBAF8"/>
<path d="M49.5 115.5C57.0939 115.5 63.25 109.344 63.25 101.75C63.25 94.1561 57.0939 88 49.5 88C41.9061 88 35.75 94.1561 35.75 101.75C35.75 109.344 41.9061 115.5 49.5 115.5Z" fill="#EAC0B3"/>
<path d="M49.5 112.75H96.25V181.143C96.25 181.143 86.2317 187 72.875 187C59.5183 187 49.5 177.438 49.5 177.438V112.75Z" fill="#EAC0B3"/>
<path d="M96.2499 148.137C96.2499 163.685 93.8244 162.211 78.0532 162.211C62.2819 162.211 55.0054 149.608 55.0054 134.06C55.0054 118.511 54.4059 104.5 67.1329 104.5C103.125 105.875 96.2499 132.588 96.2499 148.137Z" fill="#C99688"/>
<path d="M126.187 99.275C126.187 123.81 136.324 153.981 92.1258 153.981C47.9278 153.981 47.9278 123.81 47.9278 99.275C41.2508 70.125 42.6258 35.75 88.0008 35.75C133.376 35.75 126.187 74.7367 126.187 99.275V99.275Z" fill="#F5D0C5"/>
<path d="M104.5 112.75H101.75C100.231 112.75 99 113.981 99 115.5C99 117.019 100.231 118.25 101.75 118.25H104.5C106.019 118.25 107.25 117.019 107.25 115.5C107.25 113.981 106.019 112.75 104.5 112.75Z" fill="#EAC0B3"/>
<path d="M104.5 165H44C30.331 165 19.25 176.081 19.25 189.75V203.5C19.25 217.169 30.331 228.25 44 228.25H104.5C118.169 228.25 129.25 217.169 129.25 203.5V189.75C129.25 176.081 118.169 165 104.5 165Z" fill="#E05A33"/>
<path fill-rule="evenodd" clip-rule="evenodd" d="M65.9997 68.7497C65.9997 70.2072 65.7164 71.6014 65.2022 72.8747C65.8778 74.5449 66.1329 76.3555 65.9449 78.1473C65.7569 79.9392 65.1317 81.6574 64.1242 83.151C63.1167 84.6447 61.7577 85.868 60.1667 86.7134C58.5757 87.5588 56.8014 88.0005 54.9997 87.9997C54.9997 90.9171 53.8408 93.715 51.7779 95.7779C49.715 97.8408 46.9171 98.9997 43.9997 98.9997C41.0823 98.9997 38.2844 97.8408 36.2215 95.7779C34.1586 93.715 32.9997 90.9171 32.9997 87.9997C32.9997 85.1232 33.1785 80.3492 34.0117 76.1169C33.1194 74.1891 32.8043 72.0442 33.1046 69.9412C33.4049 67.8383 34.3077 65.8672 35.704 64.2662C37.1002 62.6653 38.9302 61.5028 40.9728 60.9193C43.0154 60.3358 45.1832 60.3563 47.2145 60.9782C48.7521 59.4378 50.7121 58.3881 52.8464 57.9621C54.9808 57.536 57.1936 57.7527 59.2048 58.5848C61.2159 59.4168 62.9351 60.8267 64.1446 62.6362C65.3542 64.4456 65.9998 66.5732 65.9997 68.7497ZM126.084 93.2054C127.626 92.8389 129.071 92.1437 130.32 91.1672C131.568 90.1908 132.591 88.9563 133.318 87.548C134.045 86.1398 134.46 84.5911 134.533 83.0078C134.606 81.4246 134.337 79.8442 133.743 78.3747C134.369 76.8289 134.635 75.1612 134.521 73.4976C134.407 71.834 133.916 70.218 133.086 68.7719C132.256 67.3258 131.108 66.0873 129.728 65.1502C128.349 64.213 126.775 63.6017 125.125 63.3624C126.755 71.9974 126.45 81.5427 126.175 90.2409L126.084 93.2054Z" fill="#1B0B47"/>
<path d="M79.5547 126.5C79.5547 125.771 79.8444 125.071 80.3601 124.555C80.8759 124.04 81.5753 123.75 82.3047 123.75H107.448C108.177 123.75 108.877 124.04 109.392 124.555C109.908 125.071 110.198 125.771 110.198 126.5C110.198 130.147 108.749 133.644 106.171 136.223C103.592 138.801 100.095 140.25 96.4479 140.25H93.3047C89.658 140.25 86.1606 138.801 83.582 136.223C81.0033 133.644 79.5547 130.147 79.5547 126.5V126.5Z" fill="#66253C"/>
<path fill-rule="evenodd" clip-rule="evenodd" d="M101.076 139.453C99.5905 139.982 98.0248 140.252 96.4477 140.25H93.3044C89.7529 140.25 86.3392 138.876 83.7781 136.415C81.2171 133.955 79.7075 130.599 79.5654 127.05C81.6664 126.264 84.7849 126.354 87.8622 126.445C88.8412 126.473 89.8147 126.5 90.7497 126.5C96.8272 126.5 101.75 130.809 101.75 136.125C101.75 137.294 101.51 138.416 101.076 139.453V139.453Z" fill="#B03E67"/>
<path d="M82.5 123.75H110V126.5C110 127.229 109.71 127.929 109.195 128.445C108.679 128.96 107.979 129.25 107.25 129.25H85.25C84.5207 129.25 83.8212 128.96 83.3055 128.445C82.7897 127.929 82.5 127.229 82.5 126.5V123.75Z" fill="white"/>
<path d="M88 124.575C88 124.356 88.0869 124.146 88.2416 123.992C88.3964 123.837 88.6062 123.75 88.825 123.75H92.675C92.8938 123.75 93.1036 123.837 93.2584 123.992C93.4131 124.146 93.5 124.356 93.5 124.575V131.175C93.5 131.394 93.4131 131.604 93.2584 131.758C93.1036 131.913 92.8938 132 92.675 132H88.825C88.6062 132 88.3964 131.913 88.2416 131.758C88.0869 131.604 88 131.394 88 131.175V124.575V124.575Z" fill="#B03E67"/>
<path d="M90.75 103.125C90.75 100.847 88.9032 99 86.625 99C84.3468 99 82.5 100.847 82.5 103.125V105.875C82.5 108.153 84.3468 110 86.625 110C88.9032 110 90.75 108.153 90.75 105.875V103.125Z" fill="#1B0B47"/>
<path d="M118.25 103.125C118.25 100.847 116.403 99 114.125 99C111.847 99 110 100.847 110 103.125V105.875C110 108.153 111.847 110 114.125 110C116.403 110 118.25 108.153 118.25 105.875V103.125Z" fill="#1B0B47"/>
<path fill-rule="evenodd" clip-rule="evenodd" d="M103.125 118.25C85.25 122.375 72.875 123.75 72.875 123.75C72.875 123.75 75.625 130.625 82.5 129.25C88 128.15 99 125.584 103.125 123.75V118.25ZM104.5 118.25C121 121 132 123.079 132 123.079C132 123.079 128.923 129.082 122.375 127.875L121.495 127.713C116.204 126.742 108.213 125.271 104.5 123.75V118.25Z" fill="#1B0B47"/>
</g>
<circle cx="88" cy="88" r="85.5" stroke="#3E7BFA" stroke-width="5"/>
</svg>
